<svg xmlns="http://www.w3.org/2000/svg" viewBox="0 0 320 320" role="img" aria-labelledby="title desc">
  <title id="title">Admin operasional kantor</title>
  <desc id="desc">Portrait illustration of an office administrator.</desc>
  <defs>
    <linearGradient id="bg" x1="0" x2="1" y1="0" y2="1">
      <stop offset="0" stop-color="#dbeafe"/>
      <stop offset="1" stop-color="#93c5fd"/>
    </linearGradient>
    <linearGradient id="shirt" x1="0" x2="1" y1="0" y2="1">
      <stop offset="0" stop-color="#2563eb"/>
      <stop offset="1" stop-color="#0f172a"/>
    </linearGradient>
  </defs>
  <rect width="320" height="320" fill="url(#bg)"/>
  <circle cx="250" cy="72" r="64" fill="#60a5fa" opacity=".42"/>
  <circle cx="84" cy="244" r="92" fill="#2563eb" opacity=".22"/>
  <path d="M74 294c12-72 58-108 88-108s76 36 88 108z" fill="url(#shirt)"/>
  <circle cx="162" cy="132" r="66" fill="#7c2d12"/>
  <path d="M101 132c2-48 30-82 64-82 36 0 62 34 60 82-18-16-40-26-63-26-24 0-44 10-61 26z" fill="#1e293b"/>
  <circle cx="162" cy="140" r="48" fill="#f2c6a0"/>
  <path d="M116 128c24-6 48-22 66-44 13 23 31 37 54 44-10-42-34-66-72-66-36 0-62 25-48 66z" fill="#1e293b"/>
  <circle cx="145" cy="142" r="5" fill="#0f172a"/>
  <circle cx="181" cy="142" r="5" fill="#0f172a"/>
  <path d="M148 165c10 9 24 9 34 0" fill="none" stroke="#9f1239" stroke-width="5" stroke-linecap="round"/>
  <path d="M130 206l32 38 34-38" fill="#eff6ff"/>
</svg>
